# xmcd CD database file
#
# Track frame offsets:
#	150
#	15703
#	38013
#	54116
#	70571
#	84057
#	96860
#	108124
#	124280
#	135119
#	155509
#	167120
#	180898
#	194067
#
# Disc length: 2737 seconds
#
# Revision: 0
# Processed by: cddbd v1.5.2PL0 Copyright (c) Steve Scherf et al.
# Submitted via: CDex 1.51
#
DISCID=9f0aaf0e
DTITLE=Bandari - Travelling Home
DYEAR=2005
DGENRE=New Age
TTITLE0=Sunrise
TTITLE1=Calling Me Away
TTITLE2=Travelling Home
TTITLE3=Memories
TTITLE4=Simple Things
TTITLE5=Drifting Clouds
TTITLE6=Riverside
TTITLE7=Sunbursts
TTITLE8=The Winding Road
TTITLE9=Mountain Mist
TTITLE10=Always On My Mind
TTITLE11=March Of The Wind
TTITLE12=Gentle Rain
TTITLE13=Lights Of Home
EXTD=YEAR: 2005
EXTT0=
EXTT1=
EXTT2=
EXTT3=
EXTT4=
EXTT5=
EXTT6=
EXTT7=
EXTT8=
EXTT9=
EXTT10=
EXTT11=
EXTT12=
EXTT13=
PLAYORDER=
